# AST/ASF file generated using VICON BodyLanguage
# -----------------------------------------------
:version 1.10
:name VICON
:units
  mass 1.0
  length 0.45
  angle deg
:documentation
   .ast/.asf automatically generated from VICON data using
   VICON BodyBuilder and BodyLanguage model FoxedUp or BRILLIANT.MOD
:root
   order TX TY TZ RX RY RZ
   axis XYZ
   position 0 0 0  
   orientation 0 0 0 
:bonedata
  begin
     id 1 
     name lhipjoint
     direction 0.570549 -0.739093 0.358072 
     length 2.41801 
     axis 0 0 0  XYZ
  end
  begin
     id 2 
     name lfemur
     direction 0.34202 -0.939693 0  
     length 7.44434  
     axis 0 0 20  XYZ
    dof rx ry rz
    limits (-160.0 20.0)
           (-70.0 70.0)
           (-60.0 70.0)
  end
  begin
     id 3 
     name ltibia
     direction 0.34202 -0.939693 0   
     length 7.60047   
     axis 0 0 20   XYZ
    dof rx
    limits (-10.0 170.0)
  end
  begin
     id 4 
     name lfoot
     direction 0.0909041 -0.249757 0.964032   
     length 2.03437   
     axis -90 7.62852e-016 20   XYZ
    dof rx rz
    limits (-45.0 90.0)
           (-70.0 20.0)
  end
  begin
     id 5 
     name ltoes
     direction 1.53547e-011 -4.2174e-011 1   
     length 1.02054   
     axis -90 7.62852e-016 20   XYZ
    dof rx
    limits (-90.0 20.0)
  end
  begin
     id 6 
     name rhipjoint
     direction -0.558096 -0.746754 0.361784   
     length 2.3932  
     axis 0 0 0  XYZ 
  end
  begin
     id 7 
     name rfemur
     direction -0.34202 -0.939693 0   
     length 7.3886   
     axis 0 0 -20   XYZ
    dof rx ry rz
    limits (-160.0 20.0)
           (-70.0 70.0)
           (-70.0 60.0)
  end
  begin
     id 8 
     name rtibia
     direction -0.34202 -0.939693 0   
     length 7.4839   
     axis 0 0 -20   XYZ
    dof rx
    limits (-10.0 170.0)
 end
 begin
     id 9 
     name rfoot
     direction -0.114619 -0.314914 0.942174   
     length 2.25127  
     axis -90 -7.62852e-016 -20   XYZ
    dof rx rz
    limits (-45.0 90.0)
           (-20.0 70.0)
  end
  begin
     id 10 
     name rtoes
     direction -1.53518e-011 -4.21881e-011 1   
     length 1.11821   
     axis -90 -7.62852e-016 -20   XYZ
    dof rx
    limits (-90.0 20.0)
  end
  begin
     id 11 
     name lowerback
     direction -0.00902269 0.996426 -0.0839821   
     length 2.25052   
     axis 0 0 0   XYZ
    dof rx ry rz
    limits (-20.0 45.0)
           (-30.0 30.0)
           (-30.0 30.0)
  end
  begin
     id 12 
     name upperback
     direction 0.0370973 0.999169 -0.0168941   
     length 2.24876   
     axis 0 0 0   XYZ
    dof rx ry rz
    limits (-20.0 45.0)
           (-30.0 30.0)
           (-30.0 30.0)
  end
  begin
     id 13 
     name thorax
     direction 0.0402726 0.998931 0.0227027   
     length 2.26408   
     axis 0 0 0   XYZ
    dof rx ry rz
    limits (-20.0 45.0)
           (-30.0 30.0)
           (-30.0 30.0)
  end
  begin
     id 14 
     name lowerneck
     direction -0.0733697 0.98508 0.155675   
     length 1.58204   
     axis 0 0 0   XYZ
    dof rx ry rz
    limits (-20.0 45.0)
           (-30.0 30.0)
           (-30.0 30.0)
  end
  begin
     id 15 
     name upperneck
     direction 0.0426554 0.993501 -0.105526   
     length 1.61222   
     axis 0 0 0   XYZ
    dof rx ry rz
    limits (-20.0 45.0)
           (-30.0 30.0)
           (-30.0 30.0)
  end
  begin
     id 16
     name head
     direction 0.020792 0.998384 -0.0528868  
     length 1.61527  
     axis 0 0 0   XYZ
    dof rx ry rz
    limits (-20.0 45.0)
           (-30.0 30.0)
           (-30.0 30.0)
  end
  begin
     id 17 
     name lclavicle
     direction 0.967109 0.155462 -0.201325  
     length 3.59357  
     axis 0 0 0   XYZ
    dof ry rz
    limits (-20.0 10.0)
           (0.0 20.0)
  end
  begin
     id 18 
     name lhumerus
     direction 1 -4.48968e-011 2.38195e-027   
     length 5.38154   
     axis 180 -30 -90   XYZ
    dof rx ry rz
    limits (-60.0 90.0)
           (-90.0 90.0)
           (-90.0 90.0)
  end
  begin
     id 19
     name lradius
     direction 1 -4.48961e-011 4.85371e-027   
     length 3.33312   
     axis 180 -30 -90   XYZ
    dof rx
    limits (-10.0 170.0)
  end
  begin
     id 20
     name lwrist
     direction 1 -4.48961e-011 4.76515e-027   
     length 1.66656   
     axis -3.27502e-015 90 90   XYZ
    dof ry
    limits (-180.0 0.0)
 end
  begin
     id 21 
     name lhand
     direction 1 -4.48951e-011 9.53074e-027   
     length 0.710789   
     axis -6.08098e-015 90 90   XYZ
    dof rx rz
    limits (-90.0 90.0)
           (-45.0 45.0)
  end
  begin
     id 22 
     name lfingers
     direction 1 -4.48953e-011 1.90613e-026   
     length 0.573057   
     axis -1.21619e-014 90 90   XYZ
    dof rx
    limits (0.0 90.0)
  end
  begin
     id 23
     name lthumb
     direction 0.707107 -6.34973e-011 0.707107   
     length 0.822798   
     axis -90 45 -9.86923e-015   XYZ
    dof rx rz
    limits (-45.0 45.0)
           (-45.0 45.0)
  end
  begin
     id 24 
     name rclavicle
     direction -0.9585 0.265289 -0.104398   
     length 3.42039  
     axis 0 0 0   XYZ 
    dof ry rz
    limits (-10.0 20.0)
           (-20.0 0.0)
  end
  begin
     id 25 
     name rhumerus
     direction -1 -4.48977e-011 2.21478e-027  
     length 5.16954   
     axis 180 30 90   XYZ
    dof rx ry rz
    limits (-90.0 60.0)
           (-90.0 90.0)
           (-90.0 90.0)
  end
  begin
     id 26 
     name rradius
     direction -1 -4.48967e-011 5.63677e-027   
     length 3.38287   
     axis 180 30 90   XYZ
    dof rx
    limits (-10.0 170.0)
  end
  begin
     id 27 
     name rwrist
     direction -1 -4.48967e-011 4.76501e-027   
     length 1.69144   
     axis -3.27502e-015 -90 -90   XYZ
    dof ry
    limits (-180.0 0.0)
  end
  begin
     id 28
     name rhand
     direction -1 -4.48902e-011 9.53292e-027   
     length 0.817967   
     axis -6.08098e-015 -90 -90   XYZ
    dof rx rz
    limits (-90.0 90.0)
           (-45.0 45.0)
  end
  begin
     id 29
     name rfingers
     direction -1 -4.49012e-011 1.90561e-026   
     length 0.659466   
     axis -1.21619e-014 -90 -90   XYZ
    dof rx
    limits (0.0 90.0)
  end
  begin
     id 30
     name rthumb
     direction -0.707107 -6.34944e-011 0.707107   
     length 0.946865   
     axis -90 -45 9.86923e-015   XYZ
    dof rx rz
    limits (-45.0 45.0)
           (-45.0 45.0)
  end
:hierarchy
  begin
    root lhipjoint rhipjoint lowerback
    lhipjoint lfemur
    lfemur ltibia
    ltibia lfoot
    lfoot ltoes
    rhipjoint rfemur
    rfemur rtibia
    rtibia rfoot
    rfoot rtoes
    lowerback upperback
    upperback thorax
    thorax lowerneck lclavicle rclavicle
    lowerneck upperneck
    upperneck head
    lclavicle lhumerus
    lhumerus lradius
    lradius lwrist
    lwrist lhand lthumb
    lhand lfingers
    rclavicle rhumerus
    rhumerus rradius
    rradius rwrist
    rwrist rhand rthumb
    rhand rfingers
  end

#!OML:ASF F:\twosubjects\two\wednesday\Session 1\Justin1.ASF
:FULLY-SPECIFIED
:DEGREES
242
root 15.4755 17.4957 -11.4597 -175.844 1.03561 -174.75
lowerback 0.736331 -2.22766 2.89924
upperback 2.82981 -2.82079 3.60985
thorax 2.53591 -1.28122 2.05307
lowerneck -11.118 -1.73038 -10.2189
upperneck 36.1118 4.97921 -1.22446
head 14.2035 1.97181 2.38496
rclavicle 1.46107e-014 1.23246e-014
rhumerus -21.514 -8.08197 -79.8831
rradius 27.9318
rwrist -9.99964
rhand -12.4214 19.8498
rfingers 7.12502
rthumb 13.6509 -9.68257
lclavicle 1.46107e-014 1.23246e-014
lhumerus -48.5267 -50.3686 93.2073
lradius 50.5108
lwrist -0.611047
lhand 2.28394 32.4768
lfingers 7.12502
lthumb 27.7761 60.4444
rfemur -1.53967 2.98696 30.73
rtibia 20.2184
rfoot -16.1951 0.600109
rtoes 5.74853
lfemur -30.4684 9.73305 -12.4183
ltibia 51.0921
lfoot -10.5953 -0.0436613
ltoes -8.96778
243
root 15.4636 17.4802 -11.6079 -175.643 1.37084 -174.858
lowerback 0.545941 -2.13376 2.75944
upperback 2.86078 -2.71044 3.60256
thorax 2.67951 -1.2302 2.1178
lowerneck -11.5541 -1.73387 -10.1725
upperneck 36.1394 5.05715 -1.41489
head 14.3216 1.96238 2.31913
rclavicle -4.17448e-014 -2.94201e-014
rhumerus -20.6183 -7.09202 -80.1609
rradius 28.3724
rwrist -10.5849
rhand -12.78 20.341
rfingers 7.12502
rthumb 13.3052 -9.21426
lclavicle -4.17448e-014 -2.94201e-014
lhumerus -48.3215 -50.2924 93.1948
lradius 50.3703
lwrist -0.528158
lhand 1.16906 32.4604
lfingers 7.12502
lthumb 26.7096 60.5954
rfemur -0.968339 2.69486 30.547
rtibia 19.8099
rfoot -16.6344 0.771119
rtoes 2.54708
lfemur -30.9191 9.56596 -12.6305
ltibia 49.0854
lfoot -10.6892 0.609783
ltoes -7.04531
244
root 15.4543 17.4583 -11.7532 -175.347 1.7027 -174.332
lowerback 0.366077 -2.03473 3.28381
upperback 2.83577 -2.5803 3.73631
thorax 2.73598 -1.1471 1.96065
lowerneck -11.7458 -1.70276 -10.309
upperneck 36.0146 5.04914 -1.30735
head 14.2989 1.9378 2.38089
rclavicle 4.33351e-014 -2.54444e-014
rhumerus -19.662 -6.05063 -80.4615
rradius 28.7676
rwrist -11.2835
rhand -13.1654 19.6854
rfingers 7.12502
rthumb 12.9338 -9.89376
lclavicle 4.33351e-014 -2.54444e-014
lhumerus -48.2163 -50.2243 93.1024
lradius 50.356
lwrist -0.439523
lhand 0.720228 32.6755
lfingers 7.12502
lthumb 26.28 60.8753
rfemur -0.443592 2.89419 31.0821
rtibia 19.2687
rfoot -16.8116 0.823765
rtoes 2.01013
lfemur -31.479 9.57015 -12.1327
ltibia 46.944
lfoot -10.7741 1.0664
ltoes -8.31594
245
root 15.4463 17.465 -11.9045 -175.115 2.01912 -174.441
lowerback 0.289788 -1.96382 3.12704
upperback 2.72484 -2.49405 3.72158
thorax 2.66929 -1.11359 2.03302
lowerneck -11.6269 -1.63938 -10.5049
upperneck 35.7259 5.04675 -1.20585
head 14.1302 1.92406 2.4392
rclavicle 3.8763e-015 -8.34896e-015
rhumerus -19.0403 -4.87938 -80.6855
rradius 29.4768
rwrist -11.942
rhand -13.2588 19.123
rfingers 7.12502
rthumb 12.8438 -10.4619
lclavicle 3.8763e-015 -8.34896e-015
lhumerus -48.2445 -50.2017 93.1083
lradius 50.3054
lwrist -0.294789
lhand 0.782481 32.6377
lfingers 7.12502
lthumb 26.3396 60.8286
rfemur 0.273539 3.23369 30.933
rtibia 18.4201
rfoot -16.5449 0.794671
rtoes 4.0182
lfemur -31.9012 9.41256 -12.3136
ltibia 44.6796
lfoot -11.0008 1.886
ltoes -11.6029
246
root 15.4348 17.4741 -12.0574 -174.917 2.34616 -174.443
lowerback 0.221482 -1.85274 3.12521
upperback 2.63619 -2.35227 3.70222
thorax 2.61344 -1.04651 2.01551
lowerneck -11.603 -1.61622 -10.4033
upperneck 35.5859 5.08466 -1.39874
head 14.0689 1.93049 2.34373
rclavicle -4.23411e-014 2.3059e-014
rhumerus -18.5027 -4.10483 -80.8538
rradius 30.0988
rwrist -12.3655
rhand -13.4578 19.5803
rfingers 7.12502
rthumb 12.6518 -10.0165
lclavicle -4.23411e-014 2.3059e-014
lhumerus -48.3394 -50.3985 93.2232
lradius 50.2334
lwrist -0.242244
lhand 0.685857 32.6068
lfingers 7.12502
lthumb 26.2471 60.8115
rfemur 1.16454 3.32499 30.8887
rtibia 17.3133
rfoot -15.9171 0.654131
rtoes 4.1896
lfemur -32.2264 9.00263 -12.2852
ltibia 42.3192
lfoot -10.9552 2.87752
ltoes -13.352
247
root 15.42 17.4706 -12.2175 -174.782 2.62004 -174.347
lowerback 0.0867789 -1.69576 3.36956
upperback 2.6233 -2.15629 3.60964
thorax 2.66074 -0.943671 1.78386
lowerneck -11.7699 -1.64387 -10.1387
upperneck 35.7296 5.09456 -1.56275
head 14.1822 1.9434 2.24349
rclavicle 1.07344e-014 9.93923e-015
rhumerus -17.9273 -3.59705 -81.0556
rradius 30.6718
rwrist -12.9218
rhand -13.8983 19.4604
rfingers 7.12502
rthumb 12.2271 -10.1622
lclavicle 1.07344e-014 9.93923e-015
lhumerus -48.3677 -50.7261 93.1797
lradius 50.2311
lwrist -0.315635
lhand 0.764818 32.6936
lfingers 7.12502
lthumb 26.3227 60.887
rfemur 2.31864 3.32225 30.9532
rtibia 15.9365
rfoot -15.3964 0.432701
rtoes 3.82913
lfemur -32.4289 8.4423 -12.0615
ltibia 39.8979
lfoot -10.8242 3.64131
ltoes -12.7428
248
root 15.4043 17.462 -12.3819 -174.732 2.91961 -174.624
lowerback -0.00656707 -1.60408 3.18598
upperback 2.65821 -2.0496 3.45697
thorax 2.74918 -0.898112 1.72794
lowerneck -11.987 -1.55905 -9.98053
upperneck 35.5643 5.17323 -1.69029
head 14.1557 1.9665 2.17253
rclavicle -8.15017e-015 -9.93923e-015
rhumerus -17.273 -2.95119 -81.2471
rradius 31.2561
rwrist -13.3007
rhand -14.2476 18.9671
rfingers 7.12502
rthumb 11.8904 -10.6753
lclavicle -8.15017e-015 -9.93923e-015
lhumerus -48.1554 -50.8253 92.9343
lradius 50.1412
lwrist -0.354071
lhand 1.23698 32.5249
lfingers 7.12502
lthumb 26.7746 60.65
rfemur 3.79965 3.31103 30.6055
rtibia 14.1548
rfoot -14.9697 0.326671
rtoes 5.47346
lfemur -32.5048 7.79247 -12.1894
ltibia 37.6124
lfoot -11.0568 4.37845
ltoes -10.7826
249
root 15.3842 17.4449 -12.5428 -174.511 3.2341 -174.317
lowerback -0.222305 -1.49951 3.5989
upperback 2.66944 -1.92263 3.5096
thorax 2.87013 -0.820451 1.55007
lowerneck -12.0545 -1.45093 -9.80927
upperneck 35.1813 5.24656 -1.91764
head 14.0018 1.98258 2.04809
rclavicle 4.96962e-015 -5.20816e-014
rhumerus -16.5579 -2.44697 -81.331
rradius 31.7047
rwrist -13.2366
rhand -14.5581 19.1975
rfingers 7.12502
rthumb 11.591 -10.462
lclavicle 4.96962e-015 -5.20816e-014
lhumerus -47.9691 -51.1269 92.8558
lradius 50.0709
lwrist -0.194944
lhand 1.68661 32.595
lfingers 7.12502
lthumb 27.2048 60.6534
rfemur 5.17424 3.29302 30.8296
rtibia 12.1176
rfoot -14.3675 0.428922
rtoes 8.37431
lfemur -32.7857 7.19127 -11.6527
ltibia 35.4304
lfoot -11.501 5.08468
ltoes -10.2669
250
root 15.3691 17.445 -12.7036 -174.273 3.48947 -173.915
lowerback -0.395124 -1.38296 3.91288
upperback 2.59659 -1.76865 3.71608
thorax 2.88963 -0.731823 1.5895
lowerneck -12.183 -1.42824 -9.90611
upperneck 35.4524 5.39443 -1.84826
head 14.1466 2.04456 2.12855
rclavicle 3.27995e-015 -3.10104e-014
rhumerus -16.0559 -2.13836 -81.213
rradius 32.2736
rwrist -13.1921
rhand -14.8497 20.6624
rfingers 7.12502
rthumb 11.3097 -9.01267
lclavicle 3.27995e-015 -3.10104e-014
lhumerus -48.1718 -51.047 93.2297
lradius 50.0613
lwrist -0.312551
lhand 1.72627 32.8666
lfingers 7.12502
lthumb 27.2428 60.9191
rfemur 6.62743 3.55528 31.2142
rtibia 9.84184
rfoot -13.64 0.105432
rtoes 9.04033
lfemur -32.9344 6.69499 -11.0402
ltibia 33.3607
lfoot -12.3154 5.61946
ltoes -12.3126
251
root 15.3586 17.4448 -12.8676 -174.092 3.82595 -173.791
lowerback -0.415891 -1.30523 3.82764
upperback 2.47426 -1.6572 3.86331
thorax 2.78169 -0.680222 1.79239
lowerneck -11.9861 -1.32371 -9.61143
upperneck 35.2016 5.66078 -2.48047
head 14.0163 2.13758 1.85474
rclavicle 1.25234e-014 1.39149e-014
rhumerus -15.6817 -1.572 -81.1784
rradius 32.9761
rwrist -13.5222
rhand -14.165 24.4082
rfingers 7.12502
rthumb 11.97 -5.22952
lclavicle 1.25234e-014 1.39149e-014
lhumerus -48.7061 -49.9211 93.6891
lradius 49.9979
lwrist -1.17284
lhand 0.968209 32.8778
lfingers 7.12502
lthumb 26.5174 61.042
rfemur 8.50414 3.85653 31.3574
rtibia 6.96988
rfoot -12.4609 -0.355587
rtoes 7.81499
lfemur -33.0952 5.83882 -10.5254
ltibia 31.4116
lfoot -12.9643 6.31611
ltoes -11.3579
252
root 15.3429 17.4311 -13.0374 -173.766 4.20778 -173.458
lowerback -0.660484 -1.1817 4.34036
upperback 2.35302 -1.51699 3.76386
thorax 2.77826 -0.600918 1.40374
lowerneck -11.7839 -1.11684 -9.01541
upperneck 34.9187 5.8733 -2.89102
head 13.8599 2.26756 1.60864
rclavicle 2.38542e-014 -1.03368e-014
rhumerus -15.3871 -0.936537 -81.5037
rradius 33.6734
rwrist -13.939
rhand -15.343 19.2033
rfingers 7.12502
rthumb 10.834 -10.4972
lclavicle 2.38542e-014 -1.03368e-014
lhumerus -49.1005 -52.1229 93.8414
lradius 50.2117
lwrist 0.890482
lhand 0.321344 32.9374
lfingers 7.12502
lthumb 25.8981 61.1936
rfemur 10.896 4.24558 31.7087
rtibia 2.88945
rfoot -10.673 -0.688934
rtoes 6.74431
lfemur -33.4718 5.1111 -9.81038
ltibia 29.5735
lfoot -13.1593 7.08708
ltoes -10.5781
253
root 15.3222 17.4139 -13.2075 -173.459 4.59104 -173.271
lowerback -0.923103 -1.05253 4.70285
upperback 2.21869 -1.3698 3.69014
thorax 2.77879 -0.522709 1.12632
lowerneck -11.5506 -1.02181 -8.55721
upperneck 34.8145 6.01279 -3.27214
head 13.7826 2.35707 1.39427
rclavicle -2.5842e-015 5.20816e-014
rhumerus -15.1778 -0.211627 -81.6725
rradius 34.3639
rwrist -14.3434
rhand -10.7361 26.4193
rfingers 7.12502
rthumb 15.2747 -2.99667
lclavicle -2.5842e-015 5.20816e-014
lhumerus -49.6488 -52.3927 94.0872
lradius 50.2887
lwrist 0.893186
lhand 0.953098 32.3489
lfingers 7.12502
lthumb 26.503 60.5153
rfemur 12.7163 4.6289 31.8429
rtibia 0
rfoot -9.68848 -0.786378
rtoes 5.76789
lfemur -33.7432 4.13148 -9.16531
ltibia 27.7672
lfoot -13.4072 8.07409
ltoes -12.1632
254
root 15.2999 17.394 -13.3607 -173.171 5.02436 -173.178
lowerback -0.940269 -0.962936 4.71564
upperback 2.07897 -1.24126 3.81832
thorax 2.64836 -0.460777 1.25557
lowerneck -12.1085 -1.36921 -9.62036
upperneck 35.1259 5.57427 -2.55019
head 14.0155 2.07642 1.81322
rclavicle -1.28216e-014 2.94201e-014
rhumerus -14.6968 0.397652 -81.5946
rradius 34.8875
rwrist -14.6288
rhand -12.3786 23.4744
rfingers 7.12502
rthumb 13.6921 -6.05515
lclavicle -1.28216e-014 2.94201e-014
lhumerus -49.901 -51.2047 94.2516
lradius 50.2726
lwrist -0.203911
lhand 1.70653 32.3947
lfingers 7.12502
lthumb 27.2239 60.4502
rfemur 13.0195 5.05803 31.8277
rtibia 1.59028e-014
rfoot -9.85153 -0.826261
rtoes 5.83087
lfemur -34.0963 2.50446 -8.33502
ltibia 26.2806
lfoot -13.8944 9.72843
ltoes -13.8117
